<svg xmlns="http://www.w3.org/2000/svg" viewBox="0 0 400 300" width="100%" height="100%">
  <rect width="100%" height="100%" fill="#F8FAFC" rx="12"/>
  <!-- Hand Sanitizer Pump Bottle -->
  <!-- Pump head -->
  <rect x="190" y="55" width="20" height="25" fill="#E2E8F0" stroke="#94A3B8" stroke-width="2"/>
  <path d="M 170 55 L 230 55 C 235 55 240 50 240 45 L 240 40 L 160 40 L 160 45 C 160 50 165 55 170 55 Z" fill="#0178A2"/>
  <path d="M 160 42 L 140 47 L 140 53 L 160 48 Z" fill="#0178A2"/>
  <!-- Bottle Neck -->
  <rect x="180" y="80" width="40" height="15" rx="2" fill="#015B7A"/>
  <!-- Bottle Body -->
  <rect x="145" y="95" width="110" height="155" rx="20" fill="#FFFFFF" stroke="#0178A2" stroke-width="3"/>
  <!-- Gel level (Teal) -->
  <path d="M 148 140 Q 200 135 252 140 L 252 235 C 252 245 242 248 235 248 L 165 248 C 158 248 148 245 148 235 Z" fill="#4EC2B5" fill-opacity="0.3"/>
  <!-- Label -->
  <rect x="155" y="145" width="90" height="85" rx="8" fill="#FFFFFF" stroke="#CBD5E1" stroke-width="1.5"/>
  <circle cx="200" cy="170" r="14" fill="#0178A2"/>
  <rect x="197" y="161" width="6" height="18" fill="#FFFFFF"/>
  <rect x="191" y="167" width="18" height="6" fill="#FFFFFF"/>
  <text x="200" y="200" font-family="sans-serif" font-size="9" font-weight="bold" fill="#0178A2" text-anchor="middle">70% ALCOHOL</text>
  <text x="200" y="214" font-family="sans-serif" font-size="8" fill="#64748B" text-anchor="middle">KILLS 99.9% GERMS</text>
</svg>
